<?xml version="1.0" encoding="utf-8"?>
<!-- Generator: Adobe Illustrator 22.1.0, SVG Export Plug-In . SVG Version: 6.00 Build 0)  -->
<svg version="1.1" id="Layer_1" xmlns="http://www.w3.org/2000/svg" xmlns:xlink="http://www.w3.org/1999/xlink" x="0px" y="0px"
	 viewBox="0 0 402 167" style="enable-background:new 0 0 402 167;" xml:space="preserve">
<style type="text/css">
	.st0{fill:#FFFFFF;}
</style>
<g>
	<g>
		<path class="st0" d="M34.1,135.2c3,2.1,5.3,2.9,7.5,2.9c1.2,0,1.9-0.5,1.9-1.5c0-1.4-2.6-1.9-5.1-3.1c-3.2-1.5-6.6-3.9-6.6-8.8
			c0-4.9,4.2-8.6,9.8-8.6c3.3,0,6.8,1.5,9.8,4.4l-3,5.4c-3.2-2.3-4.9-2.9-6.6-2.9c-1,0-1.7,0.5-1.7,1.3c0,1.1,1.5,1.6,3.2,2.3
			c3.5,1.6,8.5,3.5,8.5,9.3c0,5.5-4.6,8.9-9.8,8.9c-4.2,0-8.1-1.5-11-4.3L34.1,135.2z"/>
		<path class="st0" d="M63.5,116.7h17.7v6.1h-8.7v3.7h7.7v6.1h-7.7v6h9.1v6.1H63.5V116.7z"/>
		<path class="st0" d="M103.2,144.6h-9v-16.2c0-7.8,5.8-12.1,11.6-12.1c5.8,0,11.6,4.2,11.6,12.1v16.2h-9v-8.1h-5.2V144.6z
			 M108.4,128c0-3.4-0.9-4.8-2.6-4.8c-1.7,0-2.6,1.4-2.6,4.8v2.6h5.2V128z"/>
		<path class="st0" d="M130.4,116.7h18.1v6.1h-9.1v4.1h8.1v6.1h-8.1v11.6h-9V116.7z"/>
		<path class="st0" d="M159.4,130.7c0-8.7,6-14.4,13.1-14.4c7.1,0,13.1,5.7,13.1,14.4s-6,14.4-13.1,14.4
			C165.4,145,159.4,139.4,159.4,130.7z M176.5,130.7c0-4.8-1.8-7.5-4-7.5c-2.3,0-4,2.7-4,7.5s1.7,7.5,4,7.5
			C174.7,138.1,176.5,135.5,176.5,130.7z"/>
		<path class="st0" d="M196.8,130.7c0-8.7,6-14.4,13.1-14.4c7.1,0,13.1,5.7,13.1,14.4s-6,14.4-13.1,14.4
			C202.8,145,196.8,139.4,196.8,130.7z M213.9,130.7c0-4.8-1.8-7.5-4-7.5c-2.3,0-4,2.7-4,7.5s1.7,7.5,4,7.5
			C212.2,138.1,213.9,135.5,213.9,130.7z"/>
		<path class="st0" d="M235.1,116.7h11.1c7.3,0,13.8,5,13.8,13.9s-6.3,13.9-13.6,13.9h-11.2V116.7z M246.2,138.4
			c2.9,0,4.8-2.5,4.8-7.8c0-5.3-1.9-7.8-4.8-7.8h-2.1v15.6H246.2z"/>
		<path class="st0" d="M272.1,116.7h18.1v6.1h-9.1v4.1h8.1v6.1h-8.1v11.6h-9V116.7z"/>
		<path class="st0" d="M302.3,116.7H320v6.1h-8.7v3.7h7.7v6.1h-7.7v6h9.1v6.1h-18.1V116.7z"/>
		<path class="st0" d="M334.5,135.2c3,2.1,5.3,2.9,7.5,2.9c1.2,0,1.9-0.5,1.9-1.5c0-1.4-2.6-1.9-5.1-3.1c-3.2-1.5-6.6-3.9-6.6-8.8
			c0-4.9,4.2-8.6,9.8-8.6c3.3,0,6.8,1.5,9.8,4.4l-3,5.4c-3.2-2.3-4.9-2.9-6.6-2.9c-1,0-1.7,0.5-1.7,1.3c0,1.1,1.5,1.6,3.2,2.3
			c3.5,1.6,8.5,3.5,8.5,9.3c0,5.5-4.6,8.9-9.8,8.9c-4.2,0-8.1-1.5-11-4.3L334.5,135.2z"/>
		<path class="st0" d="M368.4,122.8h-7.3v-6.1h23.7v6.1h-7.3v21.8h-9V122.8z"/>
	</g>
	<g>
		<g>
			<path class="st0" d="M45,56.6c6.5-2.3,9.7-3.4,16.2-5.5c6.2-2.3,15.7-2.6,17.9,5.3c0.8,2.8-0.2,5.4-2,7.6c4,1,7.1,3.4,8.1,6.9
				c2.1,7.6-3.9,13.6-10.7,15.4c-6.8,2.1-10.1,3.3-16.8,5.7C53.5,80.2,49.3,68.4,45,56.6z M64.3,64.6c2.1-0.7,3.1-2.2,2.5-4.3
				s-2.4-2.8-4.6-2.1c-0.9,0.3-1.3,0.4-2.2,0.7c0.8,2.6,1.3,3.9,2.1,6.4C63,65,63.4,64.9,64.3,64.6z M69.6,79.9
				c3.1-1,4.1-3.3,3.4-5.9c-0.8-2.5-3-3.9-6.2-2.8c-1,0.3-1.5,0.5-2.5,0.8c1.1,3.5,1.7,5.2,2.9,8.7C68.2,80.4,68.6,80.2,69.6,79.9z"
				/>
			<path class="st0" d="M116.8,75.2c-4.8,1-7.3,1.6-12.1,2.7c-1.7-7.1-3.4-14.2-5.1-21.3c-2.4-9.4,4-17.7,13.1-19.6
				c9.1-1.9,18.2,3.4,19.7,12.9c1.2,7.2,2.4,14.4,3.6,21.6c-4.9,0.8-7.3,1.3-12.2,2.2c-0.8-4.3-1.3-6.4-2.1-10.7
				c-2.9,0.6-4.3,0.9-7.2,1.5C115.4,68.8,115.9,70.9,116.8,75.2z M119.5,51.7c-0.9-4.5-2.6-6.1-5-5.6c-2.4,0.5-3.3,2.6-2.4,7.1
				c0.3,1.4,0.4,2.1,0.7,3.4c2.9-0.6,4.4-0.9,7.3-1.5C119.9,53.8,119.8,53.1,119.5,51.7z"/>
			<path class="st0" d="M149,31.6c5.3-0.7,8-1,13.3-1.5c1,9.8,1.9,19.5,2.9,29.3c4.8-0.5,7.3-0.7,12.1-1c0.2,3.3,0.4,4.9,0.6,8.2
				c-8.1,0.7-16.1,1.5-24.1,2.4C152.1,56.5,150.5,44.1,149,31.6z"/>
			<path class="st0" d="M191.5,28.1c5.3-0.2,8-0.3,13.3-0.3c0.1,9.8,0.2,19.6,0.3,29.4c4.8-0.1,7.3-0.1,12.1,0
				c0,3.3-0.1,4.9-0.1,8.2c-8.1,0-16.1,0.1-24.2,0.3C192.4,53.1,192,40.6,191.5,28.1z"/>
			<path class="st0" d="M244.6,66.6c-4.9-0.4-7.4-0.5-12.3-0.8c0.4-7.3,0.7-14.6,1.1-21.9c0.4-9.6,8.7-15.9,18-15.1
				c9.3,0.8,16.5,8.4,15.3,17.9c-0.9,7.3-1.7,14.5-2.6,21.8c-4.9-0.6-7.4-0.8-12.3-1.3c0.4-4.3,0.6-6.5,1-10.8
				c-2.9-0.3-4.4-0.4-7.3-0.6C245,60.1,244.9,62.3,244.6,66.6z M253.7,44.9c0.4-4.6-0.7-6.6-3.2-6.8c-2.4-0.2-3.9,1.6-4.3,6.2
				c-0.1,1.4-0.2,2.1-0.3,3.5c3,0.2,4.5,0.3,7.4,0.6C253.5,46.9,253.6,46.3,253.7,44.9z"/>
			<path class="st0" d="M287.6,33.8c7.1,1.1,10.7,1.8,17.8,3.2c7.6,1.3,15.2,7.4,13.4,15.7c-0.9,4.3-4.3,7.5-9,8.7
				c3.1,6.6,4.5,10,7.3,16.6c-5.4-1.3-8-1.9-13.4-3c-2.6-5.7-3.9-8.5-6.7-14.1c-0.3-0.1-0.5-0.1-0.8-0.2c-0.9,4.9-1.4,7.4-2.3,12.3
				c-4.9-0.9-7.3-1.3-12.2-2.1C283.7,58.6,285.6,46.2,287.6,33.8z M299.5,54.2c3.6,0.7,5.8-0.9,6.5-4.2c0.7-3.4-0.8-5.8-4.4-6.5
				c-0.8-0.2-1.2-0.2-2.1-0.4c-0.8,4.3-1.2,6.4-2,10.7C298.3,54,298.7,54,299.5,54.2z"/>
			<path class="st0" d="M340.4,45.3c6.4,1.8,9.6,2.7,16,4.7c9.8,3.3,17,14.1,13.3,24.3c-3.5,9.6-14.7,14.4-24.3,11.6
				c-5.9-1.9-8.9-2.7-14.9-4.4C333.8,69.5,337.1,57.4,340.4,45.3z M347.7,78c3.9,1.2,7.5-1.1,9.7-7.9c2.2-6.8,0.6-10.9-3.5-12.2
				c-1.2-0.4-1.8-0.6-3-0.9c-2.5,8-3.7,12.1-6.1,20.1C346,77.4,346.5,77.6,347.7,78z"/>
		</g>
	</g>
</g>
</svg>
