<?xml version="1.0" encoding="utf-8"?>
<!-- Generator: Adobe Illustrator 18.1.1, SVG Export Plug-In . SVG Version: 6.00 Build 0)  -->
<svg version="1.1" id="Layer_1" xmlns="http://www.w3.org/2000/svg" xmlns:xlink="http://www.w3.org/1999/xlink" x="0px" y="0px"
	 viewBox="0 0 51 53" enable-background="new 0 0 51 53" xml:space="preserve">
<g>
	<g>
		<circle fill="#DD6B33" cx="25.2" cy="26.8" r="17.7"/>
		<path fill="#FFFFFF" d="M25.2,45.5c-10.3,0-18.7-8.4-18.7-18.7S14.9,8.2,25.2,8.2s18.7,8.4,18.7,18.7S35.4,45.5,25.2,45.5z
			 M25.2,10.2c-9.2,0-16.7,7.5-16.7,16.7c0,9.2,7.5,16.7,16.7,16.7c9.2,0,16.7-7.5,16.7-16.7C41.8,17.6,34.3,10.2,25.2,10.2z"/>
	</g>
	<g>
		<g>
			<g>
				<path fill="#FFFFFF" d="M31.3,29.6c-0.4,0-0.7,0-1,0c0-0.2-0.1-0.4-0.1-0.6c0.2-0.1,0.5-0.2,0.8-0.3c1.4-0.4,2.7-0.1,3.8,0.9
					c0.2,0.1,0.4,0.2,0.6,0.1c0.1,0,0.2-0.1,0.2-0.2c0.2-0.2,0.2-0.6,0-0.8c-1.4-1.2-3-1.6-4.8-1.1c-0.3,0.1-0.5,0.2-0.7,0.2
					c1.1-0.8,2.3-2.3,1.2-3.3c0.5-0.4,0.9-1.3,0.9-2.3c0-1.1-0.4-2.1-1.2-2.9c-0.4-0.4-1-0.8-1.6-1c-0.7-0.3-1.7-0.5-2.7-0.4
					c-0.1,0-0.1,0-0.1,0.1c0,0.1,0,0.1,0.1,0.2c0,0,0,0,0.2,0.1c0.7,0.4,2.6,1.6,2.6,2.2c0,0.2-0.2,0.3-0.5,0
					c-0.3-0.2-1.1-0.8-1.8-0.8c-0.1,0-0.1,0-0.2,0.1c0,0.1,0,0.1,0,0.2c0.5,0.5,1.1,1.1,1.3,1.9c0.1,0.5,0,1.9,0.9,2.5
					c-0.5,0.5-0.8,1.3-0.9,2.1c-0.5-0.2-1-0.4-1.5-0.4v-0.6c0-0.2-0.2-0.4-0.4-0.4c-0.2,0-0.4,0.2-0.4,0.4v0.6h-1.7v-0.6
					c0-0.2-0.2-0.4-0.4-0.4c-0.2,0-0.4,0.2-0.4,0.4v0.6c-0.5,0-1.1,0.2-1.5,0.4c-0.1-0.8-0.4-1.6-0.9-2.1c0.9-0.6,0.8-2,0.9-2.5
					c0.2-0.8,0.8-1.3,1.3-1.9c0-0.1,0.1-0.1,0-0.2c0-0.1-0.1-0.1-0.2-0.1c-0.7,0-1.5,0.5-1.8,0.8c-0.3,0.3-0.5,0.1-0.5,0
					c0-0.7,1.9-1.9,2.6-2.2c0.2-0.1,0.2-0.1,0.2-0.1c0.1,0,0.1-0.1,0.1-0.2c0-0.1-0.1-0.1-0.1-0.1c-1-0.1-2,0.1-2.7,0.4
					c-0.6,0.2-1.2,0.6-1.6,1c-0.8,0.8-1.2,1.8-1.2,2.9c0,1,0.4,1.9,0.9,2.3c-1.1,0.9,0.1,2.5,1.2,3.3c-0.2-0.1-0.5-0.2-0.7-0.2
					c-1.8-0.5-3.4-0.1-4.8,1.1c-0.2,0.2-0.3,0.6,0,0.8c0.1,0.1,0.1,0.1,0.2,0.2c0.2,0.1,0.4,0,0.6-0.1c1.1-1,2.3-1.2,3.8-0.9
					c0.3,0.1,0.5,0.2,0.8,0.3c0,0.2-0.1,0.4-0.1,0.6c-0.3,0-0.7,0-1,0c-1.8,0.1-3.3,1.1-4.2,2.7c-0.1,0.3,0,0.6,0.2,0.8
					c0.1,0,0.2,0.1,0.3,0.1c0.2,0,0.4-0.1,0.5-0.3c0.7-1.3,1.8-2,3.2-2.1c0.4,0,0.7,0,1,0c0,0.1,0,0.2,0.1,0.3
					c-0.6,0.1-1.4,0.4-1.9,1.1c-0.6,0.8-0.7,1.9-0.3,3.3c0.1,0.2,0.3,0.4,0.5,0.4c0.1,0,0.1,0,0.2,0c0.3-0.1,0.5-0.4,0.4-0.7
					c-0.3-1-0.3-1.8,0.1-2.3c0.4-0.5,1-0.6,1.5-0.7c0.7,0.9,1.8,1.6,3,1.6h2.9c1.2,0,2.3-0.6,3-1.6c0.5,0.1,1.2,0.2,1.5,0.7
					c0.4,0.5,0.4,1.3,0.1,2.3c-0.1,0.3,0.1,0.6,0.4,0.7c0.1,0,0.1,0,0.2,0c0.2,0,0.5-0.2,0.5-0.4c0.4-1.4,0.3-2.5-0.3-3.3
					c-0.5-0.6-1.3-0.9-1.9-1.1c0-0.1,0.1-0.2,0.1-0.3c0.3,0,0.6,0,1,0c1.5,0.1,2.6,0.8,3.3,2.1c0.1,0.2,0.3,0.3,0.5,0.3
					c0.1,0,0.2,0,0.3-0.1c0.3-0.1,0.4-0.5,0.2-0.8C34.5,30.6,33.1,29.7,31.3,29.6L31.3,29.6z M31.3,29.6"/>
			</g>
		</g>
	</g>
</g>
</svg>
