<?xml version="1.0" encoding="utf-8"?>
<!-- Generator: Adobe Illustrator 18.1.1, SVG Export Plug-In . SVG Version: 6.00 Build 0)  -->
<svg version="1.1" id="Layer_1" xmlns="http://www.w3.org/2000/svg" xmlns:xlink="http://www.w3.org/1999/xlink" x="0px" y="0px"
	 viewBox="0 0 43 42.5" enable-background="new 0 0 43 42.5" xml:space="preserve">
<g>
	<g>
		<circle fill="#A3A549" cx="21.5" cy="21.2" r="17.7"/>
		<path fill="#FFFFFF" d="M21.5,39.9c-10.3,0-18.7-8.4-18.7-18.7S11.2,2.6,21.5,2.6s18.7,8.4,18.7,18.7S31.8,39.9,21.5,39.9z
			 M21.5,4.6C12.3,4.6,4.8,12,4.8,21.2c0,9.2,7.5,16.7,16.7,16.7s16.7-7.5,16.7-16.7C38.2,12,30.7,4.6,21.5,4.6z"/>
	</g>
	<g>
		<path fill="#FFFFFF" d="M25.3,20.5c4.5-0.5,4.9-6.4,4.9-6.4h-3c0.1-0.7,0.1-1.1,0.1-1.1h-5.8h-5.8c0,0,0,0.4,0.1,1.1h-3
			c0,0,0.4,5.9,4.9,6.4c0.7,1.1,1.7,2,3,2.2c-0.2,0.2-0.4,0.6-0.4,1c0,0.4,0.2,0.8,0.5,1.1c0,1.4-1.2,1.6-1.8,1.7
			c-0.7,0.2-0.7,0.6-0.7,0.6h-1.1v2.4h8.7v-2.4h-1.1c0,0-0.1-0.4-0.7-0.6c-0.6-0.2-1.8-0.3-1.8-1.7c0.3-0.2,0.5-0.6,0.5-1.1
			c0-0.4-0.1-0.7-0.4-1C23.6,22.5,24.5,21.6,25.3,20.5z M27.1,15h2.1c-0.1,0.5-0.3,1.2-0.6,1.9c-0.4,0.8-0.8,1.4-1.4,1.9
			c-0.3,0.3-0.7,0.5-1.1,0.6c-0.1,0-0.2,0.1-0.3,0.1C26.5,18,26.9,16.3,27.1,15z M17,19.4c-0.4-0.1-0.7-0.3-1.1-0.6
			c-0.6-0.4-1-1.1-1.4-1.9c-0.3-0.7-0.5-1.4-0.6-2h2.1c0.2,1.3,0.6,3,1.3,4.5C17.1,19.4,17.1,19.4,17,19.4z M22.9,19.3l-1.4-1
			l-1.4,1l0.5-1.6l-1.4-1H21l0.5-1.6l0.5,1.6h1.7l-1.4,1L22.9,19.3z"/>
	</g>
</g>
</svg>
