<?xml version="1.0" encoding="utf-8"?>
<!-- Generator: Adobe Illustrator 18.1.1, SVG Export Plug-In . SVG Version: 6.00 Build 0)  -->
<svg version="1.1" id="Layer_1" xmlns="http://www.w3.org/2000/svg" xmlns:xlink="http://www.w3.org/1999/xlink" x="0px" y="0px"
	 viewBox="0 0 43 42.5" enable-background="new 0 0 43 42.5" xml:space="preserve">
<g>
	<g>
		<circle fill="#32ABA9" cx="21.5" cy="21.2" r="17.7"/>
		<path fill="#FFFFFF" d="M21.5,39.9c-10.3,0-18.7-8.4-18.7-18.7S11.2,2.6,21.5,2.6s18.7,8.4,18.7,18.7S31.8,39.9,21.5,39.9z
			 M21.5,4.6C12.3,4.6,4.8,12,4.8,21.2c0,9.2,7.5,16.7,16.7,16.7c9.2,0,16.7-7.5,16.7-16.7C38.2,12,30.7,4.6,21.5,4.6z"/>
	</g>
	<g>
		<g>
			<path fill="#FFFFFF" d="M23.7,12.3c1.2,0,1.8,0.8,1.8,1.8c0,1.2-1,2.3-2.4,2.3c-1.1,0-1.8-0.7-1.8-1.8
				C21.3,13.5,22.1,12.3,23.7,12.3L23.7,12.3z M20,30.2c-0.9,0-1.6-0.6-1-3.2l1.1-4.6c0.2-0.7,0.2-1,0-1c-0.3,0-1.5,0.5-2.2,1
				l-0.5-0.8c2.3-2,5-3.1,6.1-3.1c0.9,0,1.1,1.1,0.6,2.9l-1.2,4.8c-0.2,0.8-0.1,1.1,0.1,1.1c0.3,0,1.2-0.4,2.1-1.1l0.5,0.7
				C23.4,29.3,20.9,30.2,20,30.2L20,30.2z M20,30.2"/>
		</g>
	</g>
</g>
</svg>
