<?xml version="1.0" encoding="utf-8"?>
<!-- Generator: Adobe Illustrator 18.1.1, SVG Export Plug-In . SVG Version: 6.00 Build 0)  -->
<svg version="1.1" id="Layer_1" xmlns="http://www.w3.org/2000/svg" xmlns:xlink="http://www.w3.org/1999/xlink" x="0px" y="0px"
	 viewBox="0 0 43 42.5" enable-background="new 0 0 43 42.5" xml:space="preserve">
<g>
	<g>
		<circle fill="#32ABA9" cx="21.5" cy="21.2" r="17.7"/>
		<path fill="#FFFFFF" d="M21.5,39.9c-10.3,0-18.7-8.4-18.7-18.7S11.2,2.6,21.5,2.6s18.7,8.4,18.7,18.7S31.8,39.9,21.5,39.9z
			 M21.5,4.6C12.3,4.6,4.8,12,4.8,21.2c0,9.2,7.5,16.7,16.7,16.7s16.7-7.5,16.7-16.7C38.2,12,30.7,4.6,21.5,4.6z"/>
	</g>
	<g>
		<g>
			<g>
				<path fill="#FFFFFF" d="M18.2,14.2c0,0.8-0.6,1.4-1.4,1.4c-0.8,0-1.4-0.6-1.4-1.4c0-0.8,0.6-1.4,1.4-1.4
					C17.6,12.8,18.2,13.4,18.2,14.2L18.2,14.2z M18.2,14.2"/>
			</g>
			<g>
				<path fill="#FFFFFF" d="M19.6,17.4C19.3,16.5,18.7,16,18,16h-2.3c-0.7,0-1.2,0.5-1.6,1.4c-0.5,1.4-1.6,4.4-1.6,4.4
					c-0.1,0.3,0.1,0.7,0.4,0.9c0.3,0.1,0.7-0.1,0.9-0.4c0,0,0.8-2.2,1.3-3.7c0,0.3,0.1-0.3-1,5c0,0.1,0,0.2,0.1,0.3
					c0.1,0.1,0.2,0.1,0.3,0.1h0.5v4.9c0,0.4,0.4,0.8,0.8,0.8c0.4,0,0.8-0.4,0.8-0.8V24H17v4.9c0,0.4,0.4,0.8,0.8,0.8
					c0.4,0,0.8-0.4,0.8-0.8V24h0.5c0.1,0,0.2,0,0.3-0.1c0.1-0.1,0.1-0.2,0.1-0.3c-1-5.4-0.9-4.7-1-5c0.6,1.6,1.5,4,1.6,4.1
					c0.1,0.3,0.5,0.5,0.9,0.4c0.3-0.1,0.5-0.5,0.4-0.9C21.4,22.1,20.1,18.8,19.6,17.4L19.6,17.4z M19.6,17.4"/>
			</g>
		</g>
		<g>
			<path fill="#FFFFFF" d="M28.5,14.2c0,0.8-0.6,1.4-1.4,1.4c-0.8,0-1.4-0.6-1.4-1.4c0-0.8,0.6-1.4,1.4-1.4
				C27.9,12.8,28.5,13.4,28.5,14.2L28.5,14.2z M28.5,14.2"/>
		</g>
		<g>
			<path fill="#FFFFFF" d="M30.5,17.6c0-0.9-0.7-1.6-1.6-1.6h-3.6c-0.9,0-1.6,0.7-1.6,1.6l0,4.9c0,0.4,0.3,0.7,0.7,0.7h0
				c0.4,0,0.7-0.3,0.7-0.7l0-4.9c0-0.1,0.1-0.1,0.2-0.1c0.1,0,0.1,0.1,0.1,0.1c0,1.7,0,10.9,0,11.2c0,0.4,0.4,0.8,0.8,0.8
				c0.4,0,0.8-0.4,0.8-0.8v-6.4h0.3v6.4c0,0.4,0.4,0.8,0.8,0.8c0.4,0,0.8-0.4,0.8-0.8c0-3,0-8.1,0-11.2c0-0.1,0.1-0.1,0.1-0.1
				c0.1,0,0.1,0.1,0.1,0.1l0,4.9c0,0.4,0.3,0.7,0.7,0.7h0c0.4,0,0.7-0.3,0.7-0.7L30.5,17.6z M30.5,17.6"/>
		</g>
		<g>
			<path fill="#FFFFFF" d="M22.4,13.4c-0.3,0-0.6,0.3-0.6,0.6v14.4c0,0.3,0.3,0.6,0.6,0.6c0.3,0,0.6-0.3,0.6-0.6V14
				C23,13.6,22.8,13.4,22.4,13.4L22.4,13.4z M22.4,13.4"/>
		</g>
	</g>
</g>
</svg>
